<svg width="52" height="40" viewBox="0 0 52 40" fill="none" xmlns="http://www.w3.org/2000/svg">
<path d="M6.7998 5.59999C6.7998 4.64521 7.17909 3.72954 7.85422 3.05441C8.52935 2.37928 9.44502 2 10.3998 2H41.5997C42.5545 2 43.4701 2.37928 44.1453 3.05441C44.8204 3.72954 45.1997 4.64521 45.1997 5.59999V18.7999H6.7998V5.59999Z" stroke="#484848" stroke-width="3" stroke-linecap="round" stroke-linejoin="round"/>
<path d="M4.40039 33.2V38" stroke="#484848" stroke-width="3" stroke-linecap="round" stroke-linejoin="round"/>
<path d="M47.5996 33.2V38" stroke="#484848" stroke-width="3" stroke-linecap="round" stroke-linejoin="round"/>
<path d="M32.0003 12.7998H20.0004C19.0456 12.7998 18.1299 13.179 17.4548 13.8542C16.7797 14.5293 16.4004 15.445 16.4004 16.3998V18.7997H35.6003V16.3998C35.6003 15.445 35.221 14.5293 34.5459 13.8542C33.8708 13.179 32.9551 12.7998 32.0003 12.7998Z" stroke="#484848" stroke-width="3" stroke-linecap="round" stroke-linejoin="round"/>
<path d="M2 22.3998C2 21.445 2.37928 20.5294 3.05441 19.8542C3.72954 19.1791 4.64521 18.7998 5.59999 18.7998H46.3999C47.3546 18.7998 48.2703 19.1791 48.9454 19.8542C49.6206 20.5294 49.9998 21.445 49.9998 22.3998V33.1998H2V22.3998Z" stroke="#484848" stroke-width="3" stroke-linecap="round" stroke-linejoin="round"/>
</svg>
