<svg width="41" height="34" viewBox="0 0 41 34" fill="none" xmlns="http://www.w3.org/2000/svg">
<path d="M2 13.7727L5.97119 4.50696C6.61764 2.99858 8.26477 2 10.1053 2H30.8947C32.7352 2 34.3823 2.99858 35.0288 4.50696L39 13.7727" stroke="#484848" stroke-width="3" stroke-linecap="round" stroke-linejoin="round"/>
<path d="M2 13.7728H39V28.9091H2V13.7728Z" stroke="#484848" stroke-width="3" stroke-linecap="round" stroke-linejoin="round"/>
<path d="M5.36364 28.9091V32.2727H2V28.9091" stroke="#484848" stroke-width="3" stroke-linecap="round" stroke-linejoin="round"/>
<path d="M39.0004 28.9091V32.2727H35.6367V28.9091" stroke="#484848" stroke-width="3" stroke-linecap="round" stroke-linejoin="round"/>
<path d="M8.72772 22.1818C9.65656 22.1818 10.4095 21.4288 10.4095 20.5C10.4095 19.5711 9.65656 18.8181 8.72772 18.8181C7.79887 18.8181 7.0459 19.5711 7.0459 20.5C7.0459 21.4288 7.79887 22.1818 8.72772 22.1818Z" stroke="#484848" stroke-width="3" stroke-linecap="round" stroke-linejoin="round"/>
<path d="M32.2726 22.1818C33.2015 22.1818 33.9545 21.4288 33.9545 20.5C33.9545 19.5711 33.2015 18.8181 32.2726 18.8181C31.3438 18.8181 30.5908 19.5711 30.5908 20.5C30.5908 21.4288 31.3438 22.1818 32.2726 22.1818Z" stroke="#484848" stroke-width="3" stroke-linecap="round" stroke-linejoin="round"/>
</svg>
