<svg width="41" height="36" viewBox="0 0 41 36" fill="none" xmlns="http://www.w3.org/2000/svg">
<g clip-path="url(#clip0_433_316)">
<path d="M10.5655 7.23913V1.76087C10.5655 1.39764 10.7098 1.04928 10.9666 0.79244C11.2235 0.535597 11.5718 0.391304 11.935 0.391304C12.2983 0.391304 12.6466 0.535597 12.9035 0.79244C13.1603 1.04928 13.3046 1.39764 13.3046 1.76087V7.23913C13.3046 7.60236 13.1603 7.95072 12.9035 8.20756C12.6466 8.4644 12.2983 8.6087 11.935 8.6087C11.5718 8.6087 11.2235 8.4644 10.9666 8.20756C10.7098 7.95072 10.5655 7.60236 10.5655 7.23913ZM17.4133 8.6087C17.7765 8.6087 18.1249 8.4644 18.3817 8.20756C18.6386 7.95072 18.7829 7.60236 18.7829 7.23913V1.76087C18.7829 1.39764 18.6386 1.04928 18.3817 0.79244C18.1249 0.535597 17.7765 0.391304 17.4133 0.391304C17.0501 0.391304 16.7017 0.535597 16.4449 0.79244C16.188 1.04928 16.0437 1.39764 16.0437 1.76087V7.23913C16.0437 7.60236 16.188 7.95072 16.4449 8.20756C16.7017 8.4644 17.0501 8.6087 17.4133 8.6087ZM22.8916 8.6087C23.2548 8.6087 23.6031 8.4644 23.86 8.20756C24.1168 7.95072 24.2611 7.60236 24.2611 7.23913V1.76087C24.2611 1.39764 24.1168 1.04928 23.86 0.79244C23.6031 0.535597 23.2548 0.391304 22.8916 0.391304C22.5283 0.391304 22.18 0.535597 21.9231 0.79244C21.6663 1.04928 21.522 1.39764 21.522 1.76087V7.23913C21.522 7.60236 21.6663 7.95072 21.9231 8.20756C22.18 8.4644 22.5283 8.6087 22.8916 8.6087ZM39.3263 18.1957V19.5652C39.3258 21.3072 38.6614 22.9835 37.4684 24.2529C36.2753 25.5222 34.6434 26.2892 32.9048 26.3976C31.9706 29.0401 30.38 31.4018 28.2825 33.2609H32.4785C32.8417 33.2609 33.1901 33.4052 33.4469 33.662C33.7038 33.9188 33.8481 34.2672 33.8481 34.6304C33.8481 34.9937 33.7038 35.342 33.4469 35.5989C33.1901 35.8557 32.8417 36 32.4785 36H2.34808C1.98485 36 1.6365 35.8557 1.37965 35.5989C1.12281 35.342 0.978516 34.9937 0.978516 34.6304C0.978516 34.2672 1.12281 33.9188 1.37965 33.662C1.6365 33.4052 1.98485 33.2609 2.34808 33.2609H6.54922C4.80183 31.7171 3.40178 29.8202 2.44152 27.6955C1.48125 25.5707 0.982609 23.2664 0.978516 20.9348V12.7174C0.978516 12.3542 1.12281 12.0058 1.37965 11.749C1.6365 11.4921 1.98485 11.3478 2.34808 11.3478H32.4785C34.2947 11.3478 36.0364 12.0693 37.3207 13.3535C38.6049 14.6377 39.3263 16.3795 39.3263 18.1957ZM31.1089 14.087H3.71765V20.9348C3.72293 23.5063 4.44963 26.0247 5.81514 28.2037C7.18064 30.3827 9.13015 32.1348 11.442 33.2609H23.3846C25.6964 32.1348 27.646 30.3827 29.0115 28.2037C30.377 26.0247 31.1037 23.5063 31.1089 20.9348V14.087ZM36.5872 18.1957C36.5869 17.3462 36.3234 16.5177 35.8329 15.8242C35.3424 15.1308 34.6489 14.6064 33.8481 14.3232V20.9348C33.8471 21.7948 33.7784 22.6535 33.6426 23.5027C34.4924 23.2517 35.2382 22.7326 35.7689 22.023C36.2996 21.3134 36.5866 20.4513 36.5872 19.5652V18.1957Z" fill="#484848"/>
</g>
<defs>
<clipPath id="clip0_433_316">
<rect width="40.6957" height="36" fill="white"/>
</clipPath>
</defs>
</svg>
