<svg width="36" height="36" viewBox="0 0 36 36" fill="none" xmlns="http://www.w3.org/2000/svg">
<g clip-path="url(#clip0_433_306)">
<path d="M7.2 21.6H10.8L16.2 27H12.6L7.2 21.6ZM3.6 3.6H5.4V1.8C5.4 1.32261 5.58964 0.864773 5.92721 0.527208C6.26477 0.189642 6.72261 0 7.2 0H14.4C14.8774 0 15.3352 0.189642 15.6728 0.527208C16.0104 0.864773 16.2 1.32261 16.2 1.8V3.6H19.8V1.8C19.8 1.32261 19.9896 0.864773 20.3272 0.527208C20.6648 0.189642 21.1226 0 21.6 0H28.8C29.2774 0 29.7352 0.189642 30.0728 0.527208C30.4104 0.864773 30.6 1.32261 30.6 1.8V3.6H32.4C33.3548 3.6 34.2705 3.97928 34.9456 4.65442C35.6207 5.32955 36 6.24522 36 7.2V30.6C36 31.5548 35.6207 32.4705 34.9456 33.1456C34.2705 33.8207 33.3548 34.2 32.4 34.2V36H27V34.2H9V36H3.6V34.2C2.64522 34.2 1.72955 33.8207 1.05442 33.1456C0.379284 32.4705 0 31.5548 0 30.6V7.2C0 6.24522 0.379284 5.32955 1.05442 4.65442C1.72955 3.97928 2.64522 3.6 3.6 3.6ZM28.8 9C29.2774 9 29.7352 9.18964 30.0728 9.52721C30.4104 9.86477 30.6 10.3226 30.6 10.8C30.6 11.2774 30.4104 11.7352 30.0728 12.0728C29.7352 12.4104 29.2774 12.6 28.8 12.6C28.3226 12.6 27.8648 12.4104 27.5272 12.0728C27.1896 11.7352 27 11.2774 27 10.8C27 10.3226 27.1896 9.86477 27.5272 9.52721C27.8648 9.18964 28.3226 9 28.8 9ZM21.6 9C22.0774 9 22.5352 9.18964 22.8728 9.52721C23.2104 9.86477 23.4 10.3226 23.4 10.8C23.4 11.2774 23.2104 11.7352 22.8728 12.0728C22.5352 12.4104 22.0774 12.6 21.6 12.6C21.1226 12.6 20.6648 12.4104 20.3272 12.0728C19.9896 11.7352 19.8 11.2774 19.8 10.8C19.8 10.3226 19.9896 9.86477 20.3272 9.52721C20.6648 9.18964 21.1226 9 21.6 9ZM32.4 7.2H3.6V14.4H32.4V7.2ZM3.6 30.6H32.4V18H3.6V30.6ZM7.2 9C7.67739 9 8.13523 9.18964 8.47279 9.52721C8.81036 9.86477 9 10.3226 9 10.8C9 11.2774 8.81036 11.7352 8.47279 12.0728C8.13523 12.4104 7.67739 12.6 7.2 12.6C6.72261 12.6 6.26477 12.4104 5.92721 12.0728C5.58964 11.7352 5.4 11.2774 5.4 10.8C5.4 10.3226 5.58964 9.86477 5.92721 9.52721C6.26477 9.18964 6.72261 9 7.2 9ZM19.8 21.6H23.4L28.8 27H25.2L19.8 21.6Z" fill="#484848"/>
</g>
<defs>
<clipPath id="clip0_433_306">
<rect width="36" height="36" fill="white"/>
</clipPath>
</defs>
</svg>
