<svg width="36" height="36" viewBox="0 0 36 36" fill="none" xmlns="http://www.w3.org/2000/svg">
<g clip-path="url(#clip0_433_331)">
<path d="M6.26465 9.92647C6.26465 11.7518 6.97116 13.5023 8.22876 14.793C9.48635 16.0837 11.192 16.8088 12.9705 16.8088C14.749 16.8088 16.4547 16.0837 17.7123 14.793C18.9699 13.5023 19.6764 11.7518 19.6764 9.92647C19.6764 8.10116 18.9699 6.35061 17.7123 5.05991C16.4547 3.76922 14.749 3.04412 12.9705 3.04412C11.192 3.04412 9.48635 3.76922 8.22876 5.05991C6.97116 6.35061 6.26465 8.10116 6.26465 9.92647Z" stroke="#484848" stroke-width="3" stroke-linecap="round" stroke-linejoin="round"/>
<path d="M2.91211 34.0147V30.5735C2.91211 28.7482 3.61862 26.9977 4.87622 25.707C6.13381 24.4163 7.83948 23.6912 9.61799 23.6912H16.3239C18.1024 23.6912 19.8081 24.4163 21.0657 25.707C22.3232 26.9977 23.0298 28.7482 23.0298 30.5735V34.0147" stroke="#484848" stroke-width="3" stroke-linecap="round" stroke-linejoin="round"/>
<path d="M24.7051 3.26779C26.1475 3.64684 27.4261 4.50782 28.3391 5.715C29.2521 6.92218 29.7476 8.4069 29.7476 9.93507C29.7476 11.4632 29.2521 12.948 28.3391 14.1551C27.4261 15.3623 26.1475 16.2233 24.7051 16.6024" stroke="#484848" stroke-width="3" stroke-linecap="round" stroke-linejoin="round"/>
<path d="M33.088 34.0147V30.5735C33.0795 29.0545 32.5816 27.5811 31.6718 26.3829C30.7621 25.1847 29.4917 24.329 28.0586 23.9493" stroke="#484848" stroke-width="3" stroke-linecap="round" stroke-linejoin="round"/>
</g>
<defs>
<clipPath id="clip0_433_331">
<rect width="36" height="36" fill="white"/>
</clipPath>
</defs>
</svg>
