<svg width="36" height="36" viewBox="0 0 36 36" fill="none" xmlns="http://www.w3.org/2000/svg">
<g clip-path="url(#clip0_432_228)">
<path d="M6.42871 16.5165H31.3518M11.9672 8.20879V9.59341M10.5826 34.5165V37.2857M27.1979 34.5165V37.2857M28.5826 1.28571H9.19794C8.4635 1.28571 7.75913 1.57747 7.2398 2.0968C6.72047 2.61613 6.42871 3.3205 6.42871 4.05494V31.7473C6.42871 32.4817 6.72047 33.1861 7.2398 33.7054C7.75913 34.2247 8.4635 34.5165 9.19794 34.5165H28.5826C29.317 34.5165 30.0214 34.2247 30.5407 33.7054C31.06 33.1861 31.3518 32.4817 31.3518 31.7473V4.05494C31.3518 3.3205 31.06 2.61613 30.5407 2.0968C30.0214 1.57747 29.317 1.28571 28.5826 1.28571Z" stroke="#484848" stroke-width="3" stroke-linecap="round" stroke-linejoin="round"/>
</g>
<defs>
<clipPath id="clip0_432_228">
<rect width="36" height="36" fill="white"/>
</clipPath>
</defs>
</svg>
