<svg width="36" height="36" viewBox="0 0 36 36" fill="none" xmlns="http://www.w3.org/2000/svg">
<path d="M9.5625 33.1875C9.5625 33.6325 9.43054 34.0675 9.18331 34.4375C8.93607 34.8075 8.58467 35.0959 8.17354 35.2662C7.76241 35.4365 7.31001 35.4811 6.87355 35.3943C6.43709 35.3075 6.03618 35.0932 5.72151 34.7785C5.40684 34.4638 5.19255 34.0629 5.10573 33.6265C5.01892 33.19 5.06347 32.7376 5.23377 32.3265C5.40407 31.9153 5.69246 31.5639 6.06247 31.3167C6.43248 31.0695 6.86749 30.9375 7.3125 30.9375C7.90924 30.9375 8.48153 31.1746 8.90349 31.5965C9.32545 32.0185 9.5625 32.5908 9.5625 33.1875ZM11.8125 26.4375C11.3675 26.4375 10.9325 26.5695 10.5625 26.8167C10.1925 27.0639 9.90407 27.4153 9.73377 27.8265C9.56347 28.2376 9.51892 28.69 9.60573 29.1265C9.69255 29.5629 9.90684 29.9638 10.2215 30.2785C10.5362 30.5932 10.9371 30.8075 11.3735 30.8943C11.81 30.9811 12.2624 30.9365 12.6735 30.7662C13.0847 30.5959 13.4361 30.3075 13.6833 29.9375C13.9305 29.5675 14.0625 29.1325 14.0625 28.6875C14.0625 28.0908 13.8254 27.5185 13.4035 27.0965C12.9815 26.6746 12.4092 26.4375 11.8125 26.4375ZM2.8125 26.4375C2.36749 26.4375 1.93248 26.5695 1.56247 26.8167C1.19246 27.0639 0.904069 27.4153 0.733772 27.8265C0.563475 28.2376 0.518917 28.69 0.605734 29.1265C0.692551 29.5629 0.906843 29.9638 1.22151 30.2785C1.53618 30.5932 1.93709 30.8075 2.37355 30.8943C2.81001 30.9811 3.2624 30.9365 3.67354 30.7662C4.08467 30.5959 4.43607 30.3075 4.68331 29.9375C4.93054 29.5675 5.0625 29.1325 5.0625 28.6875C5.0625 28.0908 4.82545 27.5185 4.40349 27.0965C3.98153 26.6746 3.40924 26.4375 2.8125 26.4375ZM7.3125 26.4375C7.75751 26.4375 8.19252 26.3055 8.56253 26.0583C8.93254 25.8111 9.22093 25.4597 9.39123 25.0485C9.56153 24.6374 9.60608 24.185 9.51927 23.7485C9.43245 23.3121 9.21816 22.9112 8.90349 22.5965C8.58882 22.2818 8.18791 22.0676 7.75145 21.9807C7.315 21.8939 6.8626 21.9385 6.45146 22.1088C6.04033 22.2791 5.68893 22.5675 5.44169 22.9375C5.19446 23.3075 5.0625 23.7425 5.0625 24.1875C5.0625 24.7842 5.29955 25.3565 5.72151 25.7785C6.14347 26.2004 6.71576 26.4375 7.3125 26.4375ZM36 5.625C36 6.07256 35.8222 6.50178 35.5057 6.81825C35.1893 7.13471 34.7601 7.3125 34.3125 7.3125H31.0781L27.4486 10.9392L24.4322 28.5933C24.3459 29.1021 24.1213 29.5774 23.783 29.9671C23.4446 30.3568 23.0056 30.6459 22.5139 30.8027C22.0222 30.9595 21.4969 30.978 20.9954 30.8562C20.4939 30.7344 20.0356 30.4769 19.6706 30.112L5.88938 16.3308C5.5236 15.9656 5.26555 15.5066 5.14357 15.0043C5.02158 14.502 5.04038 13.9758 5.1979 13.4835C5.35541 12.9912 5.64555 12.5518 6.03646 12.2136C6.42736 11.8754 6.9039 11.6515 7.41375 11.5664L25.0622 8.55141L28.852 4.76157C29.1125 4.49951 29.4223 4.29173 29.7637 4.15028C30.105 4.00882 30.471 3.9365 30.8405 3.9375H34.3125C34.7601 3.9375 35.1893 4.11529 35.5057 4.43176C35.8222 4.74823 36 5.17745 36 5.625ZM23.8106 12.1894L9.045 14.7122L21.2892 26.9564L23.8106 12.1894Z" fill="#484848"/>
</svg>
