<svg width="51" height="40" viewBox="0 0 51 40" fill="none" xmlns="http://www.w3.org/2000/svg">
<path d="M2 2C2 2 3.5 18.4211 3.5 22.0526M3.5 22.0526C3.37649 25.8421 2 38 2 38M3.5 22.0526C5.8467 22.0526 12.5477 22.0526 16.5 22.0526C20.4523 22.0526 17.9329 38 17.9329 38" stroke="#484848" stroke-width="3" stroke-linecap="round" stroke-linejoin="round"/>
<path d="M49.001 2C49.001 2 47.501 18.4211 47.501 22.0526M47.501 22.0526C47.6245 25.8421 49.001 38 49.001 38M47.501 22.0526C45.1543 22.0526 38.4533 22.0526 34.501 22.0526C30.5486 22.0526 33.0681 38 33.0681 38" stroke="#484848" stroke-width="3" stroke-linecap="round" stroke-linejoin="round"/>
<path d="M9 9.57895H41.5263" stroke="#484848" stroke-width="3" stroke-linecap="round"/>
<path d="M25.4209 38V9.57895" stroke="#484848" stroke-width="3" stroke-linecap="round"/>
</svg>
