<svg width="36" height="36" viewBox="0 0 36 36" fill="none" xmlns="http://www.w3.org/2000/svg">
<path d="M23.625 1.125C23.0283 1.125 22.456 1.36205 22.034 1.78401C21.6121 2.20597 21.375 2.77826 21.375 3.375V13.5H3.9375C3.19158 13.5 2.47621 13.7963 1.94876 14.3238C1.42132 14.8512 1.125 15.5666 1.125 16.3125V18.5625C1.12487 18.9934 1.28957 19.408 1.58535 19.7214C1.88112 20.0347 2.28556 20.223 2.71575 20.2477C3.37589 22.576 4.70418 24.6595 6.53625 26.2406C7.15387 26.7739 7.82437 27.2486 8.541 27.6536L6.85913 31.0162C6.7545 31.2255 6.60375 31.5259 6.49013 31.8409C6.37763 32.1525 6.25388 32.6036 6.31238 33.0896C6.37988 33.6521 6.68587 34.1685 7.24837 34.4959C7.74337 34.7816 8.35313 34.875 9 34.875H24.75C25.6781 34.875 26.5129 34.4228 27.0923 33.8423C27.6716 33.2629 28.125 32.4281 28.125 31.5V22.5C28.125 22.1985 28.2994 21.7946 28.6256 21.348C29.7257 21.2249 30.7418 20.7006 31.4796 19.8754C32.2174 19.0502 32.6252 17.982 32.625 16.875V3.375C32.625 2.77826 32.3879 2.20597 31.966 1.78401C31.544 1.36205 30.9717 1.125 30.375 1.125H23.625ZM10.593 28.5784C11.8904 29.0244 13.253 29.2514 14.625 29.25C19.3725 29.25 23.7532 26.9089 25.875 22.9702V31.5C25.875 31.6969 25.7647 31.9871 25.5015 32.2515C25.2371 32.5159 24.9469 32.625 24.75 32.625H9C8.83575 32.625 8.70638 32.616 8.60738 32.6025C8.67263 32.4236 8.76713 32.2313 8.88075 32.0029L10.593 28.5784ZM23.0625 19.125C23.4382 19.6256 23.9783 19.9969 24.6015 20.16C23.4124 24.2854 19.3759 27 14.625 27C12.0488 27 9.6975 26.0381 7.911 24.4541C6.32636 23.0517 5.22085 21.188 4.74975 19.125H23.0625ZM22.5562 18H3.375V16.3125C3.375 16.1633 3.43426 16.0202 3.53975 15.9148C3.64524 15.8093 3.78832 15.75 3.9375 15.75H22.5V17.4375C22.5 17.6299 22.5191 17.8177 22.5562 18ZM30.375 16.875C30.375 17.4717 30.1379 18.044 29.716 18.466C29.294 18.8879 28.7217 19.125 28.125 19.125H25.3125C24.8649 19.125 24.4357 18.9472 24.1193 18.6307C23.8028 18.3143 23.625 17.8851 23.625 17.4375V3.375H30.375V16.875Z" fill="#484848"/>
</svg>
