<svg width="164" height="235" viewBox="0 0 164 235" fill="none" xmlns="http://www.w3.org/2000/svg">
<path d="M82 36L52.5 65.5V225.5" stroke="#3E9CC0" stroke-width="10" stroke-linejoin="round"/>
<path d="M52.5 102.5C40.9795 114.02 23 132 23 132V210" stroke="#3E9CC0" stroke-width="10" stroke-linejoin="round"/>
<path d="M82 211C91.9472 186.645 114.784 173.329 137 167" stroke="#266C20" stroke-width="10" stroke-linecap="round"/>
<path d="M82 176C91.9784 151.774 112.715 143.295 135 137" stroke="#266C20" stroke-width="10" stroke-linecap="round"/>
<path d="M82 141C89.5308 122.986 105.181 116.681 122 112" stroke="#266C20" stroke-width="10" stroke-linecap="round"/>
<path d="M82 111C86.5185 99.1978 95.9086 95.0669 106 92" stroke="#266C20" stroke-width="10" stroke-linecap="round"/>
<path d="M82 230C82 144.866 82 5 82 5C90.5 55 159 113 159 159.5C159 182.5 144 230 82 230ZM82 230C20 230 5 183.5 5 183.5" stroke="#48C03E" stroke-width="10" stroke-linecap="round" stroke-linejoin="round"/>
</svg>
