<svg width="44" height="36" viewBox="0 0 44 36" fill="none" xmlns="http://www.w3.org/2000/svg">
<g clip-path="url(#clip0_433_329)">
<path d="M36.72 3.6C34.3224 3.6 32.4 5.5224 32.4 7.92V22.5216C31.0176 23.7528 30.24 25.524 30.24 27.36C30.24 30.9456 33.1344 33.84 36.72 33.84C40.3056 33.84 43.2 30.9456 43.2 27.36C43.2 25.524 42.4224 23.7528 41.04 22.5432V7.92C41.04 5.5224 39.1176 3.6 36.72 3.6ZM36.72 5.76C37.908 5.76 38.88 6.732 38.88 7.92V10.08H34.56V7.92C34.56 6.732 35.532 5.76 36.72 5.76ZM12.96 0.446396L11.34 2.2608C11.34 2.2608 8.5752 5.3928 5.7888 9.4536C3.0024 13.5144 0 18.3744 0 23.04C0 30.1896 5.8104 36 12.96 36C20.1096 36 25.92 30.1896 25.92 23.04C25.92 18.3744 22.9176 13.5144 20.1312 9.4536C17.3448 5.3928 14.58 2.2608 14.58 2.2608L12.96 0.446396ZM12.96 7.2072C13.9104 8.3304 14.7744 9.2592 16.5888 11.8944C19.2024 15.696 21.6 20.5344 21.6 23.04C21.6 27.8352 17.7552 31.68 12.96 31.68C8.1648 31.68 4.32 27.8352 4.32 23.04C4.32 20.5344 6.7176 15.696 9.3312 11.8944C11.1456 9.2592 12.0096 8.3304 12.96 7.2072Z" fill="#484848"/>
</g>
<defs>
<clipPath id="clip0_433_329">
<rect width="43.2" height="36" fill="white"/>
</clipPath>
</defs>
</svg>
