<svg width="317" height="317" viewBox="0 0 317 317" fill="none" xmlns="http://www.w3.org/2000/svg">
<rect width="317" height="317" rx="158.5" fill="#E3EDFF"/>
<path d="M159 77L129.5 106.5V266.5" stroke="#3E9CC0" stroke-width="10" stroke-linejoin="round"/>
<path d="M129.5 143.5C117.98 155.02 100 173 100 173V251" stroke="#3E9CC0" stroke-width="10" stroke-linejoin="round"/>
<path d="M159 252C168.947 227.645 191.784 214.329 214 208" stroke="#266C20" stroke-width="10" stroke-linecap="round"/>
<path d="M159 217C168.978 192.774 189.715 184.295 212 178" stroke="#266C20" stroke-width="10" stroke-linecap="round"/>
<path d="M159 182C166.531 163.986 182.181 157.681 199 153" stroke="#266C20" stroke-width="10" stroke-linecap="round"/>
<path d="M159 152C163.518 140.198 172.909 136.067 183 133" stroke="#266C20" stroke-width="10" stroke-linecap="round"/>
<path d="M159 271C159 185.866 159 46 159 46C167.5 96 236 154 236 200.5C236 223.5 221 271 159 271ZM159 271C97 271 82 224.5 82 224.5" stroke="#48C03E" stroke-width="10" stroke-linecap="round" stroke-linejoin="round"/>
</svg>
