<svg width="130" height="78" viewBox="0 0 130 78" fill="none" xmlns="http://www.w3.org/2000/svg">
<path d="M15.18 65.63H14.445C14.285 65.63 14.19 65.58 14.16 65.48C14.11 65.31 14.06 64.98 14.01 64.49H11.49V72.92L11.67 72.95C12.13 73.04 12.38 73.09 12.42 73.1C12.52 73.13 12.57 73.22 12.57 73.37V74H8.94V73.37C8.94 73.29 8.96 73.225 9 73.175C9.05 73.115 9.115 73.08 9.195 73.07L10.02 72.905V64.475H7.485C7.425 65.035 7.38 65.37 7.35 65.48C7.32 65.58 7.22 65.63 7.05 65.63H6.33V63.26H15.18V65.63ZM34.4625 73.16C34.5925 73.19 34.6575 73.27 34.6575 73.4V74H31.5675V73.4C31.5675 73.27 31.6375 73.19 31.7775 73.16L32.3925 72.98L31.5525 70.82H26.9175L26.0775 72.98L26.6925 73.16C26.8225 73.19 26.8875 73.27 26.8875 73.4V74H23.8125V73.4C23.8125 73.27 23.8775 73.19 24.0075 73.16L24.6075 72.98L28.5075 63.26H29.9775L33.8625 72.98L34.4625 73.16ZM29.5575 65.645C29.4775 65.445 29.3675 65.105 29.2275 64.625C29.1075 65.085 29.0075 65.425 28.9275 65.645L27.3225 69.77H31.1475L29.5575 65.645ZM49.4621 72.95C50.4421 72.95 51.3271 72.74 52.1171 72.32V69.95H50.4521C50.3521 69.95 50.2721 69.92 50.2121 69.86C50.1521 69.8 50.1221 69.735 50.1221 69.665V68.84H53.4221V72.965C52.3521 73.735 50.9921 74.12 49.3421 74.12C47.7721 74.12 46.4971 73.615 45.5171 72.605C44.5271 71.585 44.0321 70.26 44.0321 68.63C44.0321 66.97 44.5221 65.65 45.5021 64.67C46.5121 63.65 47.8521 63.14 49.5221 63.14C50.6621 63.14 51.9271 63.4 53.3171 63.92V66.41H52.5971C52.4171 66.41 52.3121 66.33 52.2821 66.17C52.2821 66.12 52.2671 65.995 52.2371 65.795C52.2171 65.595 52.1921 65.265 52.1621 64.805C51.8421 64.705 51.6571 64.65 51.6071 64.64C50.9971 64.48 50.3521 64.4 49.6721 64.4C48.9421 64.4 48.3321 64.5 47.8421 64.7C47.3621 64.9 46.9471 65.18 46.5971 65.54C45.8871 66.29 45.5321 67.32 45.5321 68.63C45.5321 69.98 45.8971 71.04 46.6271 71.81C47.3571 72.57 48.3021 72.95 49.4621 72.95ZM63.6711 74V73.355C63.6711 73.285 63.6911 73.225 63.7311 73.175C63.7711 73.115 63.8261 73.08 63.8961 73.07L64.7511 72.905V64.34L63.8961 64.175C63.8261 64.165 63.7711 64.135 63.7311 64.085C63.6911 64.025 63.6711 63.96 63.6711 63.89V63.26H67.2711V63.89C67.2711 63.96 67.2511 64.025 67.2111 64.085C67.1711 64.135 67.1161 64.165 67.0461 64.175L66.1911 64.34V72.77H70.0611C70.0911 72.31 70.1211 72.025 70.1511 71.915C70.1611 71.845 70.1961 71.785 70.2561 71.735C70.3161 71.685 70.3861 71.66 70.4661 71.66H71.2011V74H63.6711ZM83.7458 72.905L84.6608 73.085C84.7808 73.115 84.8408 73.205 84.8408 73.355V74H81.2258V73.355C81.2258 73.195 81.2958 73.1 81.4358 73.07L82.3058 72.905V64.34L81.4058 64.16C81.2858 64.13 81.2258 64.04 81.2258 63.89V63.26H84.8408V63.89C84.8408 64.05 84.7658 64.145 84.6158 64.175L83.7458 64.34V72.905ZM105.686 63.92C105.686 64.07 105.606 64.16 105.446 64.19L104.591 64.37V74.015H103.856C103.656 74.015 103.486 73.93 103.346 73.76L97.1211 65.66C97.1411 65.83 97.1511 66.06 97.1511 66.35V72.92C97.4311 72.96 97.7661 73.02 98.1561 73.1C98.2961 73.13 98.3661 73.22 98.3661 73.37V74.015H94.7961V73.37C94.7961 73.22 94.8711 73.13 95.0211 73.1L95.8761 72.92V64.37C95.3961 64.28 95.1111 64.22 95.0211 64.19C94.8711 64.16 94.7961 64.065 94.7961 63.905V63.26H96.6261C96.7561 63.26 96.8511 63.275 96.9111 63.305C96.9511 63.325 97.0261 63.39 97.1361 63.5L103.346 71.6C103.326 71.46 103.316 71.22 103.316 70.88V64.37C103.026 64.33 102.796 64.295 102.626 64.265C102.456 64.225 102.356 64.2 102.326 64.19C102.166 64.16 102.086 64.07 102.086 63.92V63.26H105.686V63.92ZM123.152 65.855H122.432C122.252 65.855 122.147 65.77 122.117 65.6L122.012 64.445H117.992V68.015H121.952V69.155H117.992V72.83H122.012L122.102 71.75C122.132 71.59 122.242 71.51 122.432 71.51H123.152V74H115.442V73.37C115.442 73.21 115.517 73.115 115.667 73.085L116.522 72.92V64.355C116.042 64.265 115.757 64.205 115.667 64.175C115.517 64.145 115.442 64.05 115.442 63.89V63.26H123.152V65.855Z" fill="white"/>
<path d="M1.36 36V34.28C1.36 34.0933 1.41333 33.9333 1.52 33.8C1.62667 33.64 1.77333 33.5467 1.96 33.52L4.24 33.08V10.24L1.96 9.8C1.77333 9.77333 1.62667 9.69333 1.52 9.56C1.41333 9.4 1.36 9.22666 1.36 9.04V7.36H10.96V9.04C10.96 9.22666 10.9067 9.4 10.8 9.56C10.6933 9.69333 10.5467 9.77333 10.36 9.8L8.08 10.24V32.72H18.4C18.48 31.4933 18.56 30.7333 18.64 30.44C18.6667 30.2533 18.76 30.0933 18.92 29.96C19.08 29.8267 19.2667 29.76 19.48 29.76H21.44V36H1.36ZM56.3309 21.76C56.3309 24.6133 55.7309 27.16 54.5309 29.4C53.3309 31.6133 51.6643 33.3333 49.5309 34.56C47.3976 35.7867 44.9709 36.4 42.2509 36.4C39.5043 36.4 37.0509 35.7733 34.8909 34.52C32.7309 33.2667 31.0509 31.5333 29.8509 29.32C28.6776 27.08 28.0909 24.5467 28.0909 21.72C28.0909 18.8933 28.6776 16.3733 29.8509 14.16C31.0509 11.92 32.7176 10.1733 34.8509 8.92C37.0109 7.66667 39.4776 7.04 42.2509 7.04C45.0243 7.04 47.4776 7.66667 49.6109 8.92C51.7443 10.1467 53.3976 11.8667 54.5709 14.08C55.7709 16.2933 56.3709 18.8267 56.3709 21.68L56.3309 21.76ZM52.3309 21.76C52.3309 18.32 51.4376 15.5867 49.6509 13.56C47.8909 11.5067 45.3976 10.48 42.1709 10.48C40.0109 10.48 38.1709 10.96 36.6509 11.92C35.1309 12.88 33.9709 14.2133 33.1709 15.92C32.3976 17.6267 32.0109 19.5733 32.0109 21.76C32.0109 24.0267 32.4243 26.0133 33.2509 27.72C34.0776 29.4 35.2509 30.7067 36.7709 31.64C38.3176 32.5733 40.1309 33.04 42.2109 33.04C44.3176 33.04 46.1309 32.5733 47.6509 31.64C49.1709 30.68 50.3309 29.3467 51.1309 27.64C51.9576 25.9333 52.3709 23.9733 52.3709 21.76H52.3309ZM79.7819 33.2C82.3952 33.2 84.7552 32.64 86.8619 31.52V25.2H82.4219C82.1552 25.2 81.9419 25.12 81.7819 24.96C81.6219 24.8 81.5419 24.6267 81.5419 24.44V22.24H90.3419V33.24C87.4885 35.2933 83.8619 36.32 79.4619 36.32C75.2752 36.32 71.8752 34.9733 69.2619 32.28C66.6219 29.56 65.3019 26.0267 65.3019 21.68C65.3019 17.2533 66.6085 13.7333 69.2219 11.12C71.9152 8.4 75.4885 7.04 79.9419 7.04C82.9819 7.04 86.3552 7.73333 90.0619 9.12V15.76H88.1419C87.6619 15.76 87.3819 15.5467 87.3019 15.12C87.3019 14.9867 87.2619 14.6533 87.1819 14.12C87.1285 13.5867 87.0619 12.7067 86.9819 11.48C86.1285 11.2133 85.6352 11.0667 85.5019 11.04C83.8752 10.6133 82.1552 10.4 80.3419 10.4C78.3952 10.4 76.7685 10.6667 75.4619 11.2C74.1819 11.7333 73.0752 12.48 72.1419 13.44C70.2485 15.44 69.3019 18.1867 69.3019 21.68C69.3019 25.28 70.2752 28.1067 72.2219 30.16C74.1685 32.1867 76.6885 33.2 79.7819 33.2ZM128.175 21.76C128.175 24.6133 127.575 27.16 126.375 29.4C125.175 31.6133 123.508 33.3333 121.375 34.56C119.241 35.7867 116.815 36.4 114.095 36.4C111.348 36.4 108.895 35.7733 106.735 34.52C104.575 33.2667 102.895 31.5333 101.695 29.32C100.521 27.08 99.9347 24.5467 99.9347 21.72C99.9347 18.8933 100.521 16.3733 101.695 14.16C102.895 11.92 104.561 10.1733 106.695 8.92C108.855 7.66667 111.321 7.04 114.095 7.04C116.868 7.04 119.321 7.66667 121.455 8.92C123.588 10.1467 125.241 11.8667 126.415 14.08C127.615 16.2933 128.215 18.8267 128.215 21.68L128.175 21.76ZM124.175 21.76C124.175 18.32 123.281 15.5867 121.495 13.56C119.735 11.5067 117.241 10.48 114.015 10.48C111.855 10.48 110.015 10.96 108.495 11.92C106.975 12.88 105.815 14.2133 105.015 15.92C104.241 17.6267 103.855 19.5733 103.855 21.76C103.855 24.0267 104.268 26.0133 105.095 27.72C105.921 29.4 107.095 30.7067 108.615 31.64C110.161 32.5733 111.975 33.04 114.055 33.04C116.161 33.04 117.975 32.5733 119.495 31.64C121.015 30.68 122.175 29.3467 122.975 27.64C123.801 25.9333 124.215 23.9733 124.215 21.76H124.175Z" fill="white"/>
</svg>
